<?xml version="1.0" encoding="utf-8"?>
<!-- Generator: Adobe Illustrator 23.0.3, SVG Export Plug-In . SVG Version: 6.00 Build 0)  -->
<svg version="1.1" id="Layer_1" xmlns="http://www.w3.org/2000/svg" xmlns:xlink="http://www.w3.org/1999/xlink" x="0px" y="0px"
	 viewBox="0 0 2304 1296" style="enable-background:new 0 0 2304 1296;" xml:space="preserve">
<style type="text/css">
	.st0{fill:#FFFFFF;stroke:#000000;stroke-miterlimit:10;}
	.st1{fill:none;stroke:#000000;stroke-miterlimit:10;}
</style>
<polygon class="st0" points="112.97,106.39 132.45,133.2 125.71,138.09 106.23,111.28 87.78,108.51 48.14,137.3 63.3,183.97 
	80.14,192.71 111.06,182.67 113.63,190.59 82.71,200.63 74.23,217.6 89.39,264.27 138.46,264.27 152.17,250.77 152.17,216.95 
	160.11,216.95 160.11,250.77 173.82,264.27 222.89,264.27 238.05,217.6 229.57,200.63 198.65,190.59 201.22,182.67 232.14,192.71 
	248.98,183.97 264.14,137.3 224.44,108.46 205.69,111.28 186.21,138.09 179.47,133.2 198.95,106.39 195.84,87.68 156.14,58.84 
	116.03,87.98 "/>
<polygon class="st0" points="339.77,106.39 359.25,133.2 352.51,138.09 333.03,111.28 314.58,108.51 274.94,137.3 290.1,183.97 
	306.93,192.71 337.86,182.67 340.43,190.59 309.51,200.63 301.03,217.6 316.19,264.27 365.26,264.27 378.96,250.77 378.96,216.95 
	386.91,216.95 386.91,250.77 400.61,264.27 449.69,264.27 464.85,217.6 456.37,200.63 425.45,190.59 428.02,182.67 458.94,192.71 
	475.77,183.97 490.94,137.3 451.24,108.46 432.49,111.28 413.01,138.09 406.27,133.2 425.75,106.39 422.64,87.68 382.94,58.84 
	342.83,87.98 "/>
<polygon class="st0" points="566.57,106.39 586.05,133.2 579.31,138.09 559.83,111.28 541.38,108.51 501.74,137.3 516.9,183.97 
	533.73,192.71 564.65,182.67 567.23,190.59 536.31,200.63 527.83,217.6 542.99,264.27 592.06,264.27 605.76,250.77 605.76,216.95 
	613.71,216.95 613.71,250.77 627.41,264.27 676.49,264.27 691.65,217.6 683.17,200.63 652.25,190.59 654.82,182.67 685.74,192.71 
	702.57,183.97 717.74,137.3 678.04,108.46 659.28,111.28 639.81,138.09 633.07,133.2 652.55,106.39 649.44,87.68 609.74,58.84 
	569.63,87.98 "/>
<polygon class="st0" points="112.97,323.11 132.45,349.92 125.71,354.81 106.23,328 87.78,325.22 48.14,354.02 63.3,400.69 
	80.14,409.43 111.06,399.38 113.63,407.3 82.71,417.35 74.23,434.31 89.39,480.98 138.46,480.98 152.17,467.49 152.17,433.67 
	160.11,433.67 160.11,467.49 173.82,480.98 222.89,480.98 238.05,434.31 229.57,417.35 198.65,407.3 201.22,399.38 232.14,409.43 
	248.98,400.69 264.14,354.02 224.44,325.18 205.69,328 186.21,354.81 179.47,349.92 198.95,323.11 195.84,304.4 156.14,275.56 
	116.03,304.7 "/>
<polygon class="st0" points="339.77,323.11 359.25,349.92 352.51,354.81 333.03,328 314.58,325.22 274.94,354.02 290.1,400.69 
	306.93,409.43 337.86,399.38 340.43,407.3 309.51,417.35 301.03,434.31 316.19,480.98 365.26,480.98 378.96,467.49 378.96,433.67 
	386.91,433.67 386.91,467.49 400.61,480.98 449.69,480.98 464.85,434.31 456.37,417.35 425.45,407.3 428.02,399.38 458.94,409.43 
	475.77,400.69 490.94,354.02 451.24,325.18 432.49,328 413.01,354.81 406.27,349.92 425.75,323.11 422.64,304.4 382.94,275.56 
	342.83,304.7 "/>
<polygon class="st0" points="566.57,323.11 586.05,349.92 579.31,354.81 559.83,328 541.38,325.22 501.74,354.02 516.9,400.69 
	533.73,409.43 564.65,399.38 567.23,407.3 536.31,417.35 527.83,434.31 542.99,480.98 592.06,480.98 605.76,467.49 605.76,433.67 
	613.71,433.67 613.71,467.49 627.41,480.98 676.49,480.98 691.65,434.31 683.17,417.35 652.25,407.3 654.82,399.38 685.74,409.43 
	702.57,400.69 717.74,354.02 678.04,325.18 659.28,328 639.81,354.81 633.07,349.92 652.55,323.11 649.44,304.4 609.74,275.56 
	569.63,304.7 "/>
<polygon class="st0" points="112.97,539.83 132.45,566.63 125.71,571.53 106.23,544.72 87.78,541.94 48.14,570.74 63.3,617.41 
	80.14,626.15 111.06,616.1 113.63,624.02 82.71,634.07 74.23,651.03 89.39,697.7 138.46,697.7 152.17,684.21 152.17,650.39 
	160.11,650.39 160.11,684.21 173.82,697.7 222.89,697.7 238.05,651.03 229.57,634.07 198.65,624.02 201.22,616.1 232.14,626.15 
	248.98,617.41 264.14,570.74 224.44,541.9 205.69,544.72 186.21,571.53 179.47,566.63 198.95,539.83 195.84,521.12 156.14,492.28 
	116.03,521.42 "/>
<polygon class="st0" points="339.77,539.83 359.25,566.63 352.51,571.53 333.03,544.72 314.58,541.94 274.94,570.74 290.1,617.41 
	306.93,626.15 337.86,616.1 340.43,624.02 309.51,634.07 301.03,651.03 316.19,697.7 365.26,697.7 378.96,684.21 378.96,650.39 
	386.91,650.39 386.91,684.21 400.61,697.7 449.69,697.7 464.85,651.03 456.37,634.07 425.45,624.02 428.02,616.1 458.94,626.15 
	475.77,617.41 490.94,570.74 451.24,541.9 432.49,544.72 413.01,571.53 406.27,566.63 425.75,539.83 422.64,521.12 382.94,492.28 
	342.83,521.42 "/>
<polygon class="st0" points="566.57,539.83 586.05,566.63 579.31,571.53 559.83,544.72 541.38,541.94 501.74,570.74 516.9,617.41 
	533.73,626.15 564.65,616.1 567.23,624.02 536.31,634.07 527.83,651.03 542.99,697.7 592.06,697.7 605.76,684.21 605.76,650.39 
	613.71,650.39 613.71,684.21 627.41,697.7 676.49,697.7 691.65,651.03 683.17,634.07 652.25,624.02 654.82,616.1 685.74,626.15 
	702.57,617.41 717.74,570.74 678.04,541.9 659.28,544.72 639.81,571.53 633.07,566.63 652.55,539.83 649.44,521.12 609.74,492.28 
	569.63,521.42 "/>
<polygon class="st0" points="112.97,745.26 132.45,772.06 125.71,776.96 106.23,750.15 87.78,747.37 48.14,776.17 63.3,822.84 
	80.14,831.58 111.06,821.53 113.63,829.45 82.71,839.5 74.23,856.46 89.39,903.13 138.46,903.13 152.17,889.64 152.17,855.82 
	160.11,855.82 160.11,889.64 173.82,903.13 222.89,903.13 238.05,856.46 229.57,839.5 198.65,829.45 201.22,821.53 232.14,831.58 
	248.98,822.84 264.14,776.17 224.44,747.33 205.69,750.15 186.21,776.96 179.47,772.06 198.95,745.26 195.84,726.55 156.14,697.7 
	116.03,726.84 "/>
<polygon class="st0" points="339.77,745.26 359.25,772.06 352.51,776.96 333.03,750.15 314.58,747.37 274.94,776.17 290.1,822.84 
	306.93,831.58 337.86,821.53 340.43,829.45 309.51,839.5 301.03,856.46 316.19,903.13 365.26,903.13 378.96,889.64 378.96,855.82 
	386.91,855.82 386.91,889.64 400.61,903.13 449.69,903.13 464.85,856.46 456.37,839.5 425.45,829.45 428.02,821.53 458.94,831.58 
	475.77,822.84 490.94,776.17 451.24,747.33 432.49,750.15 413.01,776.96 406.27,772.06 425.75,745.26 422.64,726.55 382.94,697.7 
	342.83,726.84 "/>
<polygon class="st0" points="566.57,745.26 586.05,772.06 579.31,776.96 559.83,750.15 541.38,747.37 501.74,776.17 516.9,822.84 
	533.73,831.58 564.65,821.53 567.23,829.45 536.31,839.5 527.83,856.46 542.99,903.13 592.06,903.13 605.76,889.64 605.76,855.82 
	613.71,855.82 613.71,889.64 627.41,903.13 676.49,903.13 691.65,856.46 683.17,839.5 652.25,829.45 654.82,821.53 685.74,831.58 
	702.57,822.84 717.74,776.17 678.04,747.33 659.28,750.15 639.81,776.96 633.07,772.06 652.55,745.26 649.44,726.55 609.74,697.7 
	569.63,726.84 "/>
<polygon class="st0" points="112.97,950.68 132.45,977.49 125.71,982.39 106.23,955.58 87.78,952.8 48.14,981.6 63.3,1028.27 
	80.14,1037.01 111.06,1026.96 113.63,1034.88 82.71,1044.93 74.23,1061.89 89.39,1108.56 138.46,1108.56 152.17,1095.07 
	152.17,1061.24 160.11,1061.24 160.11,1095.07 173.82,1108.56 222.89,1108.56 238.05,1061.89 229.57,1044.93 198.65,1034.88 
	201.22,1026.96 232.14,1037.01 248.98,1028.27 264.14,981.6 224.44,952.75 205.69,955.58 186.21,982.39 179.47,977.49 
	198.95,950.68 195.84,931.98 156.14,903.13 116.03,932.27 "/>
<polygon class="st0" points="339.77,950.68 359.25,977.49 352.51,982.39 333.03,955.58 314.58,952.8 274.94,981.6 290.1,1028.27 
	306.93,1037.01 337.86,1026.96 340.43,1034.88 309.51,1044.93 301.03,1061.89 316.19,1108.56 365.26,1108.56 378.96,1095.07 
	378.96,1061.24 386.91,1061.24 386.91,1095.07 400.61,1108.56 449.69,1108.56 464.85,1061.89 456.37,1044.93 425.45,1034.88 
	428.02,1026.96 458.94,1037.01 475.77,1028.27 490.94,981.6 451.24,952.75 432.49,955.58 413.01,982.39 406.27,977.49 
	425.75,950.68 422.64,931.98 382.94,903.13 342.83,932.27 "/>
<polygon class="st0" points="566.57,950.68 586.05,977.49 579.31,982.39 559.83,955.58 541.38,952.8 501.74,981.6 516.9,1028.27 
	533.73,1037.01 564.65,1026.96 567.23,1034.88 536.31,1044.93 527.83,1061.89 542.99,1108.56 592.06,1108.56 605.76,1095.07 
	605.76,1061.24 613.71,1061.24 613.71,1095.07 627.41,1108.56 676.49,1108.56 691.65,1061.89 683.17,1044.93 652.25,1034.88 
	654.82,1026.96 685.74,1037.01 702.57,1028.27 717.74,981.6 678.04,952.75 659.28,955.58 639.81,982.39 633.07,977.49 
	652.55,950.68 649.44,931.98 609.74,903.13 569.63,932.27 "/>
<line class="st1" x1="378.96" y1="433.67" x2="378.96" y2="480.98"/>
</svg>
